<svg width="578" height="446" viewBox="0 0 578 446" fill="none" xmlns="http://www.w3.org/2000/svg">
<circle opacity="0.4" cx="423" cy="223" r="154" stroke="#F37F66" stroke-width="2"/>
<path d="M237 53.3047C251.236 33.9293 267.511 34.728 284.941 49.9791C288.723 53.2882 289.474 58.1667 286.82 62.0919C284.473 65.5641 273.505 60.8485 274.14 57.2816C276.575 43.6095 279.076 29.6241 294.22 26.2701C306.231 23.61 315.033 28.3914 324.974 35.112" stroke="#F05F40" stroke-width="2" stroke-linecap="round"/>
<path d="M174.97 382.431C165.794 387.806 147.203 399.322 136.385 391.911C127.826 386.048 126.613 374.863 139.679 376.445C144.402 377.017 143.308 383.828 140.438 385.884C137.275 388.149 129.2 388.184 125.469 388.636C122.017 389.055 110.598 387.616 107.816 385.598C102.863 382.004 99.6425 381.473 98.6698 375.359C97.1715 365.942 94.1389 360.21 105.168 358.455C108.662 357.899 114.903 361.621 110.019 362.695C105.749 363.634 101.304 364.081 96.9849 364.769C88.0618 366.188 81.6279 362.745 80.1176 353.252C79.4729 349.2 78.5922 345.113 78.1734 341.032C77.6631 336.06 81.7521 332.025 80.9876 327.22" stroke="#F05F40" stroke-width="2" stroke-linecap="round"/>
<circle cx="224" cy="177" r="8" fill="#FFDA6A"/>
<circle cx="144" cy="438" r="8" fill="#FFDA6A"/>
<path d="M26.8107 353.794L6.13125 355.882L14.6627 336.929L26.8107 353.794Z" fill="#FFDA6A"/>
<path d="M334 140L344.393 158H323.608L334 140Z" fill="#FFDA6A"/>
<path d="M199 0L201.694 8.2918H210.412L203.359 13.4164L206.053 21.7082L199 16.5836L191.946 21.7082L194.64 13.4164L187.587 8.2918H196.305L199 0Z" fill="#FFDA6A"/>
<path d="M498 274L500.695 282.292H509.413L502.36 287.416L505.054 295.708L498 290.584L490.947 295.708L493.641 287.416L486.588 282.292H495.306L498 274Z" fill="#FFDA6A"/>
</svg>
