<svg width="20" height="17" viewBox="0 0 20 17" fill="none" xmlns="http://www.w3.org/2000/svg">
<path d="M6.08553 14.6112L12.0817 0.606658C12.2991 0.0989525 12.8868 -0.136404 13.3946 0.080974C13.866 0.282825 14.1026 0.804068 13.96 1.284L13.9202 1.39385L7.92409 15.3984C7.70671 15.9061 7.11892 16.1414 6.61121 15.9241C6.13977 15.7222 5.90316 15.201 6.04581 14.721L6.08553 14.6112L12.0817 0.606658L6.08553 14.6112ZM0.292893 7.29315L4.29289 3.29315C4.68342 2.90263 5.31658 2.90263 5.70711 3.29315C6.06759 3.65363 6.09532 4.22087 5.7903 4.61316L5.70711 4.70736L2.41421 8.00026L5.70711 11.2931C6.09763 11.6837 6.09763 12.3168 5.70711 12.7074C5.34662 13.0678 4.77939 13.0956 4.3871 12.7906L4.29289 12.7074L0.292893 8.70736C-0.0675908 8.34688 -0.0953202 7.77965 0.209705 7.38736L0.292893 7.29315L4.29289 3.29315L0.292893 7.29315ZM14.2921 3.29191C14.6526 2.93144 15.2198 2.90374 15.6121 3.20878L15.7063 3.29198L19.7071 7.29318C20.0678 7.65384 20.0953 8.22137 19.7899 8.61364L19.7066 8.70783L15.7058 12.7034C15.315 13.0936 14.6818 13.0932 14.2916 12.7024C13.9313 12.3417 13.904 11.7745 14.2093 11.3824L14.2925 11.2882L17.5854 7.99975L14.292 4.70613C13.9015 4.31558 13.9015 3.68242 14.2921 3.29191Z" fill="#F05F40"/>
</svg>
