<svg width="20" height="20" viewBox="0 0 20 20" fill="none" xmlns="http://www.w3.org/2000/svg">
<path d="M2.75 0C1.23122 0 0 1.23122 0 2.75V15.25C0 16.7688 1.23122 18 2.75 18H9.02182C8.72526 17.5368 8.48584 17.0335 8.3135 16.5H2.75C2.05964 16.5 1.5 15.9404 1.5 15.25V2.75C1.5 2.05964 2.05964 1.5 2.75 1.5H15.25C15.9404 1.5 16.5 2.05964 16.5 2.75V8.3135C17.0335 8.48584 17.5368 8.72526 18 9.02182V2.75C18 1.23122 16.7688 0 15.25 0H2.75ZM14.9566 8.01579C14.9875 7.93365 15.0044 7.84465 15.0044 7.75171C15.0044 7.33749 14.6686 7.00171 14.2544 7.00171L9.25 7.00173C8.83578 7.00173 8.5 7.33752 8.5 7.75173C8.5 8.16595 8.83579 8.50173 9.25 8.50173L11.9915 8.50172C12.7634 8.17854 13.6108 8 14.5 8C14.6535 8 14.8057 8.00532 14.9566 8.01579ZM5.25 5.50171C4.00736 5.50171 3 6.50907 3 7.75171C3 8.99435 4.00736 10.0017 5.25 10.0017C6.49264 10.0017 7.5 8.99435 7.5 7.75171C7.5 6.50907 6.49264 5.50171 5.25 5.50171ZM4.5 7.75171C4.5 7.3375 4.83579 7.00171 5.25 7.00171C5.66421 7.00171 6 7.3375 6 7.75171C6 8.16592 5.66421 8.50171 5.25 8.50171C4.83579 8.50171 4.5 8.16592 4.5 7.75171ZM3 13.25C3 12.0074 4.00736 11 5.25 11C6.49264 11 7.5 12.0074 7.5 13.25C7.5 14.4926 6.49264 15.5 5.25 15.5C4.00736 15.5 3 14.4926 3 13.25ZM5.25 12.5C4.83579 12.5 4.5 12.8358 4.5 13.25C4.5 13.6642 4.83579 14 5.25 14C5.66421 14 6 13.6642 6 13.25C6 12.8358 5.66421 12.5 5.25 12.5ZM14.2544 4.5L3.75488 4.50002C3.34067 4.50002 3.00488 4.16424 3.00488 3.75002C3.00488 3.33581 3.34067 3.00002 3.75488 3.00002L14.2544 3C14.6686 3 15.0044 3.33578 15.0044 3.75C15.0044 4.16421 14.6686 4.5 14.2544 4.5ZM20 14.5C20 11.4624 17.5376 9 14.5 9C11.4624 9 9 11.4624 9 14.5C9 17.5376 11.4624 20 14.5 20C17.5376 20 20 17.5376 20 14.5ZM15.0011 17.5035C15.0011 17.7797 14.7773 18.0035 14.5011 18.0035C14.225 18.0035 14.0011 17.7797 14.0011 17.5035L14.0006 15H11.4961C11.22 15 10.9961 14.7762 10.9961 14.5C10.9961 14.2239 11.22 14 11.4961 14H14.0005L14 11.4993C14 11.2231 14.2239 10.9993 14.5 10.9993C14.7761 10.9993 15 11.2231 15 11.4993L15.0005 14H17.503C17.7792 14 18.003 14.2239 18.003 14.5C18.003 14.7762 17.7792 15 17.503 15H15.0006L15.0011 17.5035Z" fill="#F05F40"/>
</svg>
